<svg xmlns="http://www.w3.org/2000/svg" viewBox="0 0 32 32" width="32" height="32">
  <defs>
    <linearGradient id="sparkGradient" x1="0%" y1="0%" x2="100%" y2="100%">
      <stop offset="0%" style="stop-color:#f5a559;stop-opacity:1" />
      <stop offset="50%" style="stop-color:#ee8c2b;stop-opacity:1" />
      <stop offset="100%" style="stop-color:#d67a1f;stop-opacity:1" />
    </linearGradient>
  </defs>

  <!-- 圓形背景 -->
  <circle cx="16" cy="16" r="16" fill="url(#sparkGradient)" />

  <!-- 白色火花 -->
  <path d="M16 4
           C16 4, 19 10, 22 13
           C25 16, 30 17, 30 17
           C30 17, 25 18, 22 21
           C19 24, 16 30, 16 30
           C16 30, 13 24, 10 21
           C7 18, 2 17, 2 17
           C2 17, 7 16, 10 13
           C13 10, 16 4, 16 4Z"
        fill="#ffffff" />

  <!-- 高光 -->
  <ellipse cx="16" cy="12" rx="3" ry="5"
           fill="rgba(34,25,16,0.15)" />
</svg>
